<svg width="77" height="16" viewBox="0 0 77 16" fill="none" xmlns="http://www.w3.org/2000/svg">
<g clip-path="url(#clip0_59_796)">
<mask id="mask0_59_796" style="mask-type:luminance" maskUnits="userSpaceOnUse" x="0" y="0" width="77" height="16">
<path d="M77 0H0.0476074V16H77V0Z" fill="white"/>
</mask>
<g mask="url(#mask0_59_796)">
<path d="M27.3363 8.00266C26.3941 9.08175 23.6434 11.7407 22.3858 12.3874C21.903 12.6369 21.3462 12.8512 20.8342 12.6776C18.6267 11.9237 20.1704 9.16305 20.9997 7.80495C21.6597 6.72397 22.5707 5.85366 23.3358 4.854C24.0697 3.895 25.0178 1.89569 23.5869 1.06788C23.1022 0.787023 22.485 0.866474 21.9887 1.12516C21.4942 1.38385 21.0951 1.80145 20.7038 2.20982C18.2431 4.7727 15.7104 7.25982 13.1077 9.66933C12.6696 10.0759 12.2277 10.4787 11.7858 10.8815C11.5755 11.0718 10.8495 11.9588 10.5205 11.7629C10.4251 11.7056 10.3939 11.5707 10.4212 11.4599C10.501 11.1346 10.8631 10.8223 11.0616 10.571C11.3225 10.2421 11.5775 9.90956 11.8287 9.57326C12.3309 8.90065 12.8156 8.21325 13.2809 7.51297C14.2114 6.11235 15.068 4.65814 15.8448 3.15774C15.8993 3.05241 15.9538 2.94708 16.0063 2.84176C16.3198 2.2246 16.6254 1.49473 16.3606 0.851693C16.1056 0.234531 15.3814 -0.0574198 14.7391 0.014644C14.0966 0.086708 13.5184 0.448874 12.987 0.829522C9.67559 3.19838 7.20712 6.6131 4.1527 9.32564C3.91325 9.53813 3.59399 9.76358 3.26499 9.76541C2.65955 9.76914 2.64593 9.06141 2.77246 8.61798C3.48497 6.14376 6.04103 4.76346 7.28888 2.52948C7.38622 2.35394 7.47771 2.16916 7.49134 1.96591C7.52443 1.45962 7.05138 1.05125 6.57054 0.953324C5.71008 0.777781 4.83795 1.31549 4.30454 2.03613C3.83927 2.66622 3.59399 3.40718 3.3156 4.13706C2.57974 6.06985 1.62583 7.90103 0.882185 9.83009C0.426651 11.0626 0.0918126 12.369 0.060665 13.6957C0.0489846 14.2168 -0.00747072 15.0667 0.257285 15.5287C0.508413 15.9685 1.08465 16.1052 1.52266 15.9204C2.14756 15.6581 2.56027 14.9485 2.94961 14.4126C3.40321 13.7918 3.84706 13.1635 4.29286 12.5352C5.18252 11.277 6.06828 10.0149 6.99882 8.78979C8.70027 6.55212 10.5828 4.42346 12.8584 2.80111C12.9617 2.7272 13.0901 2.65144 13.205 2.70503C13.3822 2.78633 13.3335 3.0561 13.2556 3.23904C11.6418 6.98266 9.13052 10.2828 7.76976 14.1336C7.59646 14.6251 7.45435 15.2201 7.76001 15.6359C8.05006 16.0331 8.63993 16.0701 9.07406 15.8558C9.50812 15.6433 9.82355 15.2405 10.1272 14.8561C13.2556 10.887 16.7325 7.21363 20.4994 3.89315C20.7077 3.71022 21.0347 3.52914 21.2236 3.73425C19.7129 7.1508 16.97 10.0315 16.3178 13.7271C16.2049 14.3701 16.1874 15.1166 16.6293 15.5841C16.9077 15.8779 17.2795 15.9777 17.6747 15.9629C18.1166 15.9445 18.5896 15.7818 18.9926 15.5841C21.4202 14.3923 25.4071 11.0977 27.3344 9.15748V7.99893L27.3363 8.00266Z" fill="#F5F7F0"/>
<path d="M42.5445 8.91214V1.10156H35.8361L27.3367 9.254V12.2142H38.6977V16.0021H42.5425V12.2142H43.3855L46.4652 8.91031H42.5425L42.5445 8.91214ZM32.9277 8.91214L38.6549 3.43901V8.91214H32.9277Z" fill="#F5F7F0"/>
<path d="M52.8345 8.36535L60.0725 1.07031H54.2284L46.6264 8.91049H52.2486L45.6335 16.0023H51.3219L58.6066 8.30257L52.8345 8.36535Z" fill="#F5F7F0"/>
<path d="M75.3133 7.11068C74.1901 6.3383 72.4283 5.95211 70.0299 5.95211H66.2358L70.7405 1.10352H65.9301L59.4066 7.70568C58.6026 8.51871 58.1257 9.58484 58.1179 10.699C58.1179 10.7083 58.1179 10.7194 58.1179 10.7286V10.8284C58.1179 14.2783 60.4832 16.0041 65.2138 16.0041H70.028C74.6729 16.0041 76.9969 14.2783 76.9969 10.8284V10.7286C76.9969 9.08968 76.4369 7.88488 75.3133 7.11252V7.11068ZM72.6405 10.7675C72.6405 11.9408 71.784 12.5266 70.0727 12.5266H65.0697C63.3429 12.5266 62.4805 11.9408 62.4805 10.7675V10.6677C62.4805 9.54789 63.3429 8.98987 65.0697 8.98987H70.0727C71.7859 8.98987 72.6405 9.54972 72.6405 10.6677V10.7675Z" fill="#F5F7F0"/>
<path d="M74.4208 3.7963C75.3905 3.7963 76.1766 3.05009 76.1766 2.12959C76.1766 1.2091 75.3905 0.462891 74.4208 0.462891C73.4509 0.462891 72.6648 1.2091 72.6648 2.12959C72.6648 3.05009 73.4509 3.7963 74.4208 3.7963Z" fill="#F5F7F0"/>
</g>
</g>
<defs>
<clipPath id="clip0_59_796">
<rect width="76.9524" height="16" fill="white" transform="translate(0.0476074)"/>
</clipPath>
</defs>
</svg>
