<svg width="210" height="34" viewBox="0 0 210 34" fill="none" xmlns="http://www.w3.org/2000/svg">
<path d="M15.315 15.7109C15.315 16.5065 14.9989 17.2696 14.4363 17.8322C13.8737 18.3948 13.1106 18.7109 12.315 18.7109C11.5194 18.7109 10.7563 18.3948 10.1937 17.8322C9.63107 17.2696 9.315 16.5065 9.315 15.7109C9.315 14.9153 9.63107 14.1522 10.1937 13.5896C10.7563 13.027 11.5194 12.7109 12.315 12.7109C13.1106 12.7109 13.8737 13.027 14.4363 13.5896C14.9989 14.1522 15.315 14.9153 15.315 15.7109Z" stroke="white" stroke-width="1.5" stroke-linecap="round" stroke-linejoin="round"/>
<path d="M19.815 15.7109C19.815 22.8529 12.315 26.9609 12.315 26.9609C12.315 26.9609 4.815 22.8529 4.815 15.7109C4.815 13.7218 5.60518 11.8142 7.0117 10.4076C8.41822 9.00112 10.3259 8.21094 12.315 8.21094C14.3041 8.21094 16.2118 9.00112 17.6183 10.4076C19.0248 11.8142 19.815 13.7218 19.815 15.7109Z" stroke="white" stroke-width="1.5" stroke-linecap="round" stroke-linejoin="round"/>
<path d="M33.365 13.9609V3.16094H34.3775L38.6225 12.2434L42.845 3.16094H43.8725V13.9534H42.8225V5.62094L38.975 13.9609H38.2625L34.4225 5.62094V13.9609H33.365ZM49.1598 14.1859C48.3548 14.1859 47.6673 14.0034 47.0973 13.6384C46.5273 13.2734 46.0898 12.7684 45.7848 12.1234C45.4798 11.4784 45.3273 10.7384 45.3273 9.90344C45.3273 9.05344 45.4823 8.30844 45.7923 7.66844C46.1023 7.02844 46.5423 6.53094 47.1123 6.17594C47.6873 5.81594 48.3698 5.63594 49.1598 5.63594C49.9698 5.63594 50.6598 5.81844 51.2298 6.18344C51.8048 6.54344 52.2423 7.04594 52.5423 7.69094C52.8473 8.33094 52.9998 9.06844 52.9998 9.90344C52.9998 10.7534 52.8473 11.5009 52.5423 12.1459C52.2373 12.7859 51.7973 13.2859 51.2223 13.6459C50.6473 14.0059 49.9598 14.1859 49.1598 14.1859ZM49.1598 13.1284C50.0598 13.1284 50.7298 12.8309 51.1698 12.2359C51.6098 11.6359 51.8298 10.8584 51.8298 9.90344C51.8298 8.92344 51.6073 8.14344 51.1623 7.56344C50.7223 6.98344 50.0548 6.69344 49.1598 6.69344C48.5548 6.69344 48.0548 6.83094 47.6598 7.10594C47.2698 7.37594 46.9773 7.75344 46.7823 8.23844C46.5923 8.71844 46.4973 9.27344 46.4973 9.90344C46.4973 10.8784 46.7223 11.6609 47.1723 12.2509C47.6223 12.8359 48.2848 13.1284 49.1598 13.1284ZM57.8143 14.1859C56.9993 14.1859 56.3093 14.0034 55.7443 13.6384C55.1793 13.2734 54.7493 12.7709 54.4543 12.1309C54.1643 11.4859 54.0143 10.7459 54.0043 9.91094C54.0143 9.06094 54.1693 8.31594 54.4693 7.67594C54.7693 7.03094 55.2018 6.53094 55.7668 6.17594C56.3318 5.81594 57.0168 5.63594 57.8218 5.63594C58.6418 5.63594 59.3543 5.83594 59.9593 6.23594C60.5693 6.63594 60.9868 7.18344 61.2118 7.87844L60.1318 8.22344C59.9418 7.73844 59.6393 7.36344 59.2243 7.09844C58.8143 6.82844 58.3443 6.69344 57.8143 6.69344C57.2193 6.69344 56.7268 6.83094 56.3368 7.10594C55.9468 7.37594 55.6568 7.75344 55.4668 8.23844C55.2768 8.72344 55.1793 9.28094 55.1743 9.91094C55.1843 10.8809 55.4093 11.6609 55.8493 12.2509C56.2893 12.8359 56.9443 13.1284 57.8143 13.1284C58.3643 13.1284 58.8318 13.0034 59.2168 12.7534C59.6068 12.4984 59.9018 12.1284 60.1018 11.6434L61.2118 11.9734C60.9118 12.6934 60.4718 13.2434 59.8918 13.6234C59.3118 13.9984 58.6193 14.1859 57.8143 14.1859ZM62.5524 13.9609L62.5599 5.86094H63.6699V9.76094L67.2849 5.86094H68.7549L64.9599 9.91094L69.2499 13.9609H67.6449L63.6699 10.0609V13.9609H62.5524ZM69.7938 13.9609V5.86094H73.1313C73.3013 5.86094 73.5063 5.87094 73.7463 5.89094C73.9913 5.91094 74.2188 5.94844 74.4288 6.00344C74.8838 6.12344 75.2488 6.36844 75.5238 6.73844C75.8038 7.10844 75.9438 7.55344 75.9438 8.07344C75.9438 8.36344 75.8988 8.62344 75.8088 8.85344C75.7238 9.07844 75.6013 9.27344 75.4413 9.43844C75.3663 9.52344 75.2838 9.59844 75.1938 9.66344C75.1038 9.72344 75.0163 9.77344 74.9313 9.81344C75.0913 9.84344 75.2638 9.91344 75.4488 10.0234C75.7388 10.1934 75.9588 10.4234 76.1088 10.7134C76.2588 10.9984 76.3338 11.3459 76.3338 11.7559C76.3338 12.3109 76.2013 12.7634 75.9363 13.1134C75.6713 13.4634 75.3163 13.7034 74.8713 13.8334C74.6713 13.8884 74.4538 13.9234 74.2188 13.9384C73.9888 13.9534 73.7713 13.9609 73.5663 13.9609H69.7938ZM70.9038 13.0234H73.5138C73.6188 13.0234 73.7513 13.0159 73.9113 13.0009C74.0713 12.9809 74.2138 12.9559 74.3388 12.9259C74.6338 12.8509 74.8488 12.7009 74.9838 12.4759C75.1238 12.2459 75.1938 11.9959 75.1938 11.7259C75.1938 11.3709 75.0888 11.0809 74.8788 10.8559C74.6738 10.6259 74.3988 10.4859 74.0538 10.4359C73.9388 10.4109 73.8188 10.3959 73.6938 10.3909C73.5688 10.3859 73.4563 10.3834 73.3563 10.3834H70.9038V13.0234ZM70.9038 9.43844H73.1688C73.2988 9.43844 73.4438 9.43094 73.6038 9.41594C73.7688 9.39594 73.9113 9.36344 74.0313 9.31844C74.2913 9.22844 74.4813 9.07344 74.6013 8.85344C74.7263 8.63344 74.7888 8.39344 74.7888 8.13344C74.7888 7.84844 74.7213 7.59844 74.5863 7.38344C74.4563 7.16844 74.2588 7.01844 73.9938 6.93344C73.8138 6.86844 73.6188 6.83094 73.4088 6.82094C73.2038 6.81094 73.0738 6.80594 73.0188 6.80594H70.9038V9.43844ZM79.9462 14.1859C79.3362 14.1859 78.8237 14.0759 78.4087 13.8559C77.9987 13.6359 77.6912 13.3434 77.4862 12.9784C77.2812 12.6134 77.1787 12.2159 77.1787 11.7859C77.1787 11.3459 77.2662 10.9709 77.4412 10.6609C77.6212 10.3459 77.8637 10.0884 78.1687 9.88844C78.4787 9.68844 78.8362 9.53594 79.2412 9.43094C79.6512 9.33094 80.1037 9.24344 80.5987 9.16844C81.0987 9.08844 81.5862 9.02094 82.0612 8.96594C82.5412 8.90594 82.9612 8.84844 83.3212 8.79344L82.9312 9.03344C82.9462 8.23344 82.7912 7.64094 82.4662 7.25594C82.1412 6.87094 81.5762 6.67844 80.7712 6.67844C80.2162 6.67844 79.7462 6.80344 79.3612 7.05344C78.9812 7.30344 78.7137 7.69844 78.5587 8.23844L77.4862 7.92344C77.6712 7.19844 78.0437 6.63594 78.6037 6.23594C79.1637 5.83594 79.8912 5.63594 80.7862 5.63594C81.5262 5.63594 82.1537 5.77594 82.6687 6.05594C83.1887 6.33094 83.5562 6.73094 83.7712 7.25594C83.8712 7.49094 83.9362 7.75344 83.9662 8.04344C83.9962 8.33344 84.0112 8.62844 84.0112 8.92844V13.9609H83.0287V11.9284L83.3137 12.0484C83.0387 12.7434 82.6112 13.2734 82.0312 13.6384C81.4512 14.0034 80.7562 14.1859 79.9462 14.1859ZM80.0737 13.2334C80.5887 13.2334 81.0387 13.1409 81.4237 12.9559C81.8087 12.7709 82.1187 12.5184 82.3537 12.1984C82.5887 11.8734 82.7412 11.5084 82.8112 11.1034C82.8712 10.8434 82.9037 10.5584 82.9087 10.2484C82.9137 9.93344 82.9162 9.69844 82.9162 9.54344L83.3362 9.76094C82.9612 9.81094 82.5537 9.86094 82.1137 9.91094C81.6787 9.96094 81.2487 10.0184 80.8237 10.0834C80.4037 10.1484 80.0237 10.2259 79.6837 10.3159C79.4537 10.3809 79.2312 10.4734 79.0162 10.5934C78.8012 10.7084 78.6237 10.8634 78.4837 11.0584C78.3487 11.2534 78.2812 11.4959 78.2812 11.7859C78.2812 12.0209 78.3387 12.2484 78.4537 12.4684C78.5737 12.6884 78.7637 12.8709 79.0237 13.0159C79.2887 13.1609 79.6387 13.2334 80.0737 13.2334ZM85.6136 15.5284L85.6811 14.9809C85.8811 14.9959 86.0261 14.9559 86.1161 14.8609C86.2061 14.7659 86.2611 14.6384 86.2811 14.4784C86.3011 14.3184 86.3061 14.1459 86.2961 13.9609H85.6136V12.3784H86.8961V14.2609C86.8961 14.7209 86.7786 15.0659 86.5436 15.2959C86.3136 15.5259 86.0036 15.6034 85.6136 15.5284ZM93.5059 17.5609L95.0734 13.3084L95.0959 14.5684L91.5484 5.86094H92.7184L95.6284 13.1434H95.1484L97.8334 5.86094H98.9584L94.6084 17.5609H93.5059ZM99.0181 13.9609V12.9934C99.3181 13.0484 99.5456 13.0359 99.7006 12.9559C99.8606 12.8709 99.9781 12.7309 100.053 12.5359C100.128 12.3359 100.191 12.0884 100.241 11.7934C100.321 11.3034 100.393 10.7634 100.458 10.1734C100.523 9.58344 100.581 8.93344 100.631 8.22344C100.686 7.50844 100.741 6.72094 100.796 5.86094H106.301V13.9609H105.206V6.91844H101.816C101.781 7.44844 101.741 7.97594 101.696 8.50094C101.651 9.02594 101.603 9.53094 101.553 10.0159C101.508 10.4959 101.458 10.9384 101.403 11.3434C101.348 11.7484 101.291 12.0984 101.231 12.3934C101.141 12.8384 101.021 13.1934 100.871 13.4584C100.726 13.7234 100.508 13.8984 100.218 13.9834C99.9281 14.0684 99.5281 14.0609 99.0181 13.9609ZM108.406 13.9609V12.6784H109.689V13.9609H108.406ZM111.805 13.9609V3.16094H112.907V12.9034H117.002V3.16094H118.105V12.9034H122.207V3.16094H123.302V13.9609H111.805ZM131.633 5.86094V13.9609H130.561V7.65344L126.121 13.9609H125.191V5.86094H126.263V12.1159L130.711 5.86094H131.633ZM133.531 13.9609V5.86094H139.973V13.9609H138.871V6.91844H134.633V13.9609H133.531ZM148.313 5.86094V13.9609H147.241V7.65344L142.801 13.9609H141.871V5.86094H142.943V12.1159L147.391 5.86094H148.313ZM149.469 13.9609V12.9934C149.769 13.0484 149.996 13.0359 150.151 12.9559C150.311 12.8709 150.429 12.7309 150.504 12.5359C150.579 12.3359 150.641 12.0884 150.691 11.7934C150.771 11.3034 150.844 10.7634 150.909 10.1734C150.974 9.58344 151.031 8.93344 151.081 8.22344C151.136 7.50844 151.191 6.72094 151.246 5.86094H156.751V13.9609H155.656V6.91844H152.266C152.231 7.44844 152.191 7.97594 152.146 8.50094C152.101 9.02594 152.054 9.53094 152.004 10.0159C151.959 10.4959 151.909 10.9384 151.854 11.3434C151.799 11.7484 151.741 12.0984 151.681 12.3934C151.591 12.8384 151.471 13.1934 151.321 13.4584C151.176 13.7234 150.959 13.8984 150.669 13.9834C150.379 14.0684 149.979 14.0609 149.469 13.9609ZM162.029 14.1859C161.224 14.1859 160.536 14.0034 159.966 13.6384C159.396 13.2734 158.959 12.7684 158.654 12.1234C158.349 11.4784 158.196 10.7384 158.196 9.90344C158.196 9.05344 158.351 8.30844 158.661 7.66844C158.971 7.02844 159.411 6.53094 159.981 6.17594C160.556 5.81594 161.239 5.63594 162.029 5.63594C162.839 5.63594 163.529 5.81844 164.099 6.18344C164.674 6.54344 165.111 7.04594 165.411 7.69094C165.716 8.33094 165.869 9.06844 165.869 9.90344C165.869 10.7534 165.716 11.5009 165.411 12.1459C165.106 12.7859 164.666 13.2859 164.091 13.6459C163.516 14.0059 162.829 14.1859 162.029 14.1859ZM162.029 13.1284C162.929 13.1284 163.599 12.8309 164.039 12.2359C164.479 11.6359 164.699 10.8584 164.699 9.90344C164.699 8.92344 164.476 8.14344 164.031 7.56344C163.591 6.98344 162.924 6.69344 162.029 6.69344C161.424 6.69344 160.924 6.83094 160.529 7.10594C160.139 7.37594 159.846 7.75344 159.651 8.23844C159.461 8.71844 159.366 9.27344 159.366 9.90344C159.366 10.8784 159.591 11.6609 160.041 12.2509C160.491 12.8359 161.154 13.1284 162.029 13.1284ZM167.316 13.9609V5.86094H170.653C170.823 5.86094 171.028 5.87094 171.268 5.89094C171.513 5.91094 171.741 5.94844 171.951 6.00344C172.406 6.12344 172.771 6.36844 173.046 6.73844C173.326 7.10844 173.466 7.55344 173.466 8.07344C173.466 8.36344 173.421 8.62344 173.331 8.85344C173.246 9.07844 173.123 9.27344 172.963 9.43844C172.888 9.52344 172.806 9.59844 172.716 9.66344C172.626 9.72344 172.538 9.77344 172.453 9.81344C172.613 9.84344 172.786 9.91344 172.971 10.0234C173.261 10.1934 173.481 10.4234 173.631 10.7134C173.781 10.9984 173.856 11.3459 173.856 11.7559C173.856 12.3109 173.723 12.7634 173.458 13.1134C173.193 13.4634 172.838 13.7034 172.393 13.8334C172.193 13.8884 171.976 13.9234 171.741 13.9384C171.511 13.9534 171.293 13.9609 171.088 13.9609H167.316ZM168.426 13.0234H171.036C171.141 13.0234 171.273 13.0159 171.433 13.0009C171.593 12.9809 171.736 12.9559 171.861 12.9259C172.156 12.8509 172.371 12.7009 172.506 12.4759C172.646 12.2459 172.716 11.9959 172.716 11.7259C172.716 11.3709 172.611 11.0809 172.401 10.8559C172.196 10.6259 171.921 10.4859 171.576 10.4359C171.461 10.4109 171.341 10.3959 171.216 10.3909C171.091 10.3859 170.978 10.3834 170.878 10.3834H168.426V13.0234ZM168.426 9.43844H170.691C170.821 9.43844 170.966 9.43094 171.126 9.41594C171.291 9.39594 171.433 9.36344 171.553 9.31844C171.813 9.22844 172.003 9.07344 172.123 8.85344C172.248 8.63344 172.311 8.39344 172.311 8.13344C172.311 7.84844 172.243 7.59844 172.108 7.38344C171.978 7.16844 171.781 7.01844 171.516 6.93344C171.336 6.86844 171.141 6.83094 170.931 6.82094C170.726 6.81094 170.596 6.80594 170.541 6.80594H168.426V9.43844ZM178.511 14.1859C177.696 14.1859 177.006 14.0034 176.441 13.6384C175.876 13.2734 175.446 12.7709 175.151 12.1309C174.861 11.4859 174.711 10.7459 174.701 9.91094C174.711 9.06094 174.866 8.31594 175.166 7.67594C175.466 7.03094 175.898 6.53094 176.463 6.17594C177.028 5.81594 177.713 5.63594 178.518 5.63594C179.338 5.63594 180.051 5.83594 180.656 6.23594C181.266 6.63594 181.683 7.18344 181.908 7.87844L180.828 8.22344C180.638 7.73844 180.336 7.36344 179.921 7.09844C179.511 6.82844 179.041 6.69344 178.511 6.69344C177.916 6.69344 177.423 6.83094 177.033 7.10594C176.643 7.37594 176.353 7.75344 176.163 8.23844C175.973 8.72344 175.876 9.28094 175.871 9.91094C175.881 10.8809 176.106 11.6609 176.546 12.2509C176.986 12.8359 177.641 13.1284 178.511 13.1284C179.061 13.1284 179.528 13.0034 179.913 12.7534C180.303 12.4984 180.598 12.1284 180.798 11.6434L181.908 11.9734C181.608 12.6934 181.168 13.2434 180.588 13.6234C180.008 13.9984 179.316 14.1859 178.511 14.1859ZM183.249 13.9609L183.256 5.86094H184.366V9.76094L187.981 5.86094H189.451L185.656 9.91094L189.946 13.9609H188.341L184.366 10.0609V13.9609H183.249ZM192.815 14.1859C192.205 14.1859 191.693 14.0759 191.278 13.8559C190.868 13.6359 190.56 13.3434 190.355 12.9784C190.15 12.6134 190.048 12.2159 190.048 11.7859C190.048 11.3459 190.135 10.9709 190.31 10.6609C190.49 10.3459 190.733 10.0884 191.038 9.88844C191.348 9.68844 191.705 9.53594 192.11 9.43094C192.52 9.33094 192.973 9.24344 193.468 9.16844C193.968 9.08844 194.455 9.02094 194.93 8.96594C195.41 8.90594 195.83 8.84844 196.19 8.79344L195.8 9.03344C195.815 8.23344 195.66 7.64094 195.335 7.25594C195.01 6.87094 194.445 6.67844 193.64 6.67844C193.085 6.67844 192.615 6.80344 192.23 7.05344C191.85 7.30344 191.583 7.69844 191.428 8.23844L190.355 7.92344C190.54 7.19844 190.913 6.63594 191.473 6.23594C192.033 5.83594 192.76 5.63594 193.655 5.63594C194.395 5.63594 195.023 5.77594 195.538 6.05594C196.058 6.33094 196.425 6.73094 196.64 7.25594C196.74 7.49094 196.805 7.75344 196.835 8.04344C196.865 8.33344 196.88 8.62844 196.88 8.92844V13.9609H195.898V11.9284L196.183 12.0484C195.908 12.7434 195.48 13.2734 194.9 13.6384C194.32 14.0034 193.625 14.1859 192.815 14.1859ZM192.943 13.2334C193.458 13.2334 193.908 13.1409 194.293 12.9559C194.678 12.7709 194.988 12.5184 195.223 12.1984C195.458 11.8734 195.61 11.5084 195.68 11.1034C195.74 10.8434 195.773 10.5584 195.778 10.2484C195.783 9.93344 195.785 9.69844 195.785 9.54344L196.205 9.76094C195.83 9.81094 195.423 9.86094 194.983 9.91094C194.548 9.96094 194.118 10.0184 193.693 10.0834C193.273 10.1484 192.893 10.2259 192.553 10.3159C192.323 10.3809 192.1 10.4734 191.885 10.5934C191.67 10.7084 191.493 10.8634 191.353 11.0584C191.218 11.2534 191.15 11.4959 191.15 11.7859C191.15 12.0209 191.208 12.2484 191.323 12.4684C191.443 12.6884 191.633 12.8709 191.893 13.0159C192.158 13.1609 192.508 13.2334 192.943 13.2334ZM203.71 13.9609V10.9084H201.82C201.6 10.9084 201.373 10.9009 201.138 10.8859C200.908 10.8659 200.693 10.8384 200.493 10.8034C199.923 10.6934 199.438 10.4434 199.038 10.0534C198.643 9.65844 198.445 9.11344 198.445 8.41844C198.445 7.73844 198.63 7.19344 199 6.78344C199.37 6.36844 199.818 6.09844 200.343 5.97344C200.583 5.91844 200.825 5.88594 201.07 5.87594C201.32 5.86594 201.535 5.86094 201.715 5.86094H204.813L204.82 13.9609H203.71ZM198.183 13.9609L200.44 10.5634H201.663L199.39 13.9609H198.183ZM201.76 9.96344H203.71V6.80594H201.76C201.64 6.80594 201.473 6.81094 201.258 6.82094C201.043 6.83094 200.84 6.86344 200.65 6.91844C200.485 6.96844 200.32 7.05594 200.155 7.18094C199.995 7.30094 199.86 7.46344 199.75 7.66844C199.64 7.86844 199.585 8.11344 199.585 8.40344C199.585 8.80844 199.695 9.13344 199.915 9.37844C200.14 9.61844 200.42 9.78344 200.755 9.87344C200.935 9.91344 201.115 9.93844 201.295 9.94844C201.475 9.95844 201.63 9.96344 201.76 9.96344ZM206.574 15.5284L206.641 14.9809C206.841 14.9959 206.986 14.9559 207.076 14.8609C207.166 14.7659 207.221 14.6384 207.241 14.4784C207.261 14.3184 207.266 14.1459 207.256 13.9609H206.574V12.3784H207.856V14.2609C207.856 14.7209 207.739 15.0659 207.504 15.2959C207.274 15.5259 206.964 15.6034 206.574 15.5284ZM32.765 31.7609V29.0159C33.225 29.0159 33.555 28.8684 33.755 28.5734C33.955 28.2734 34.1175 27.7959 34.2425 27.1409C34.3275 26.7159 34.3975 26.2584 34.4525 25.7684C34.5075 25.2784 34.555 24.7184 34.595 24.0884C34.635 23.4534 34.6725 22.7109 34.7075 21.8609H40.0625V29.0159H40.8425V31.7609H39.7775V29.9609H33.8225V31.7609H32.765ZM34.6325 29.0159H38.9675V22.8059H35.7275C35.7125 23.1859 35.69 23.5884 35.66 24.0134C35.635 24.4384 35.6025 24.8634 35.5625 25.2884C35.5275 25.7134 35.485 26.1134 35.435 26.4884C35.39 26.8584 35.335 27.1834 35.27 27.4634C35.195 27.8234 35.1125 28.1309 35.0225 28.3859C34.9375 28.6409 34.8075 28.8509 34.6325 29.0159ZM42.3545 29.9609V28.6784H43.637V29.9609H42.3545ZM48.9406 30.1859C48.3806 30.1859 47.8631 30.0709 47.3881 29.8409C46.9131 29.6109 46.5081 29.2934 46.1731 28.8884C45.8381 28.4834 45.5981 28.0184 45.4531 27.4934L46.5106 27.2084C46.6056 27.5984 46.7781 27.9359 47.0281 28.2209C47.2781 28.5009 47.5706 28.7184 47.9056 28.8734C48.2456 29.0284 48.6006 29.1059 48.9706 29.1059C49.4506 29.1059 49.8806 28.9909 50.2606 28.7609C50.6456 28.5259 50.9506 28.2159 51.1756 27.8309C51.4006 27.4459 51.5131 27.0234 51.5131 26.5634C51.5131 26.0884 51.3956 25.6609 51.1606 25.2809C50.9256 24.8959 50.6156 24.5909 50.2306 24.3659C49.8456 24.1409 49.4256 24.0284 48.9706 24.0284C48.4606 24.0284 48.0206 24.1409 47.6506 24.3659C47.2806 24.5859 46.9856 24.8634 46.7656 25.1984L45.7606 24.7784L46.0906 19.1609H51.8581V20.2184H46.5781L47.1256 19.7009L46.8331 24.4934L46.5556 24.1259C46.8656 23.7709 47.2406 23.4934 47.6806 23.2934C48.1206 23.0934 48.5831 22.9934 49.0681 22.9934C49.7331 22.9934 50.3331 23.1534 50.8681 23.4734C51.4031 23.7884 51.8281 24.2159 52.1431 24.7559C52.4581 25.2959 52.6156 25.8984 52.6156 26.5634C52.6156 27.2234 52.4481 27.8284 52.1131 28.3784C51.7781 28.9234 51.3331 29.3609 50.7781 29.6909C50.2231 30.0209 49.6106 30.1859 48.9406 30.1859ZM57.5028 30.1859C56.8278 30.1859 56.2303 30.0509 55.7103 29.7809C55.1953 29.5109 54.7903 29.1334 54.4953 28.6484C54.2053 28.1584 54.0603 27.5859 54.0603 26.9309C54.0603 26.2609 54.2228 25.6659 54.5478 25.1459C54.8728 24.6209 55.3678 24.2234 56.0328 23.9534L56.0178 24.3884C55.4628 24.1834 55.0403 23.8484 54.7503 23.3834C54.4603 22.9184 54.3153 22.4034 54.3153 21.8384C54.3153 21.2384 54.4528 20.7234 54.7278 20.2934C55.0028 19.8584 55.3778 19.5234 55.8528 19.2884C56.3328 19.0534 56.8828 18.9359 57.5028 18.9359C58.1228 18.9359 58.6728 19.0534 59.1528 19.2884C59.6328 19.5234 60.0103 19.8584 60.2853 20.2934C60.5603 20.7234 60.6978 21.2384 60.6978 21.8384C60.6978 22.4034 60.5578 22.9159 60.2778 23.3759C60.0028 23.8359 59.5803 24.1734 59.0103 24.3884L58.9728 23.9534C59.6378 24.2184 60.1353 24.6134 60.4653 25.1384C60.8003 25.6634 60.9678 26.2609 60.9678 26.9309C60.9678 27.5859 60.8203 28.1584 60.5253 28.6484C60.2303 29.1334 59.8228 29.5109 59.3028 29.7809C58.7828 30.0509 58.1828 30.1859 57.5028 30.1859ZM57.5028 29.1284C58.1828 29.1284 58.7353 28.9409 59.1603 28.5659C59.5853 28.1859 59.7978 27.6409 59.7978 26.9309C59.7978 26.2109 59.5878 25.6659 59.1678 25.2959C58.7478 24.9209 58.1928 24.7334 57.5028 24.7334C56.8128 24.7334 56.2603 24.9209 55.8453 25.2959C55.4303 25.6659 55.2228 26.2109 55.2228 26.9309C55.2228 27.6409 55.4328 28.1859 55.8528 28.5659C56.2728 28.9409 56.8228 29.1284 57.5028 29.1284ZM57.5028 23.6684C58.1028 23.6684 58.5903 23.5159 58.9653 23.2109C59.3403 22.9009 59.5278 22.4434 59.5278 21.8384C59.5278 21.2334 59.3403 20.7809 58.9653 20.4809C58.5903 20.1759 58.1028 20.0234 57.5028 20.0234C56.9028 20.0234 56.4153 20.1759 56.0403 20.4809C55.6703 20.7809 55.4853 21.2334 55.4853 21.8384C55.4853 22.4434 55.6703 22.9009 56.0403 23.2109C56.4153 23.5159 56.9028 23.6684 57.5028 23.6684ZM62.5615 31.5284L62.629 30.9809C62.829 30.9959 62.974 30.9559 63.064 30.8609C63.154 30.7659 63.209 30.6384 63.229 30.4784C63.249 30.3184 63.254 30.1459 63.244 29.9609H62.5615V28.3784H63.844V30.2609C63.844 30.7209 63.7265 31.0659 63.4915 31.2959C63.2615 31.5259 62.9515 31.6034 62.5615 31.5284ZM69.2913 29.9609L69.2988 21.8609H70.4088V25.7609L74.0238 21.8609H75.4938L71.6988 25.9109L75.9888 29.9609H74.3838L70.4088 26.0609V29.9609H69.2913ZM76.7502 29.9609V28.6784H78.0327V29.9609H76.7502ZM80.2295 29.9609V20.3909L78.197 21.6134V20.3759L80.2295 19.1609H81.347V29.9609H80.2295ZM83.2412 31.5284L83.3087 30.9809C83.5087 30.9959 83.6537 30.9559 83.7437 30.8609C83.8337 30.7659 83.8887 30.6384 83.9087 30.4784C83.9287 30.3184 83.9337 30.1459 83.9237 29.9609H83.2412V28.3784H84.5237V30.2609C84.5237 30.7209 84.4062 31.0659 84.1712 31.2959C83.9412 31.5259 83.6312 31.6034 83.2412 31.5284ZM91.861 29.9609V20.3909L89.8285 21.6134V20.3759L91.861 19.1609H92.9785V29.9609H91.861ZM97.5057 29.9609V20.3909L95.4732 21.6134V20.3759L97.5057 19.1609H98.6232V29.9609H97.5057ZM104.455 30.1859C103.895 30.1859 103.378 30.0709 102.903 29.8409C102.428 29.6109 102.023 29.2934 101.688 28.8884C101.353 28.4834 101.113 28.0184 100.968 27.4934L102.025 27.2084C102.12 27.5984 102.293 27.9359 102.543 28.2209C102.793 28.5009 103.085 28.7184 103.42 28.8734C103.76 29.0284 104.115 29.1059 104.485 29.1059C104.965 29.1059 105.395 28.9909 105.775 28.7609C106.16 28.5259 106.465 28.2159 106.69 27.8309C106.915 27.4459 107.028 27.0234 107.028 26.5634C107.028 26.0884 106.91 25.6609 106.675 25.2809C106.44 24.8959 106.13 24.5909 105.745 24.3659C105.36 24.1409 104.94 24.0284 104.485 24.0284C103.975 24.0284 103.535 24.1409 103.165 24.3659C102.795 24.5859 102.5 24.8634 102.28 25.1984L101.275 24.7784L101.605 19.1609H107.373V20.2184H102.093L102.64 19.7009L102.348 24.4934L102.07 24.1259C102.38 23.7709 102.755 23.4934 103.195 23.2934C103.635 23.0934 104.098 22.9934 104.583 22.9934C105.248 22.9934 105.848 23.1534 106.383 23.4734C106.918 23.7884 107.343 24.2159 107.658 24.7559C107.973 25.2959 108.13 25.8984 108.13 26.5634C108.13 27.2234 107.963 27.8284 107.628 28.3784C107.293 28.9234 106.848 29.3609 106.293 29.6909C105.738 30.0209 105.125 30.1859 104.455 30.1859ZM112.913 30.1859C112.353 30.1859 111.835 30.0709 111.36 29.8409C110.885 29.6109 110.48 29.2934 110.145 28.8884C109.81 28.4834 109.57 28.0184 109.425 27.4934L110.483 27.2084C110.578 27.5984 110.75 27.9359 111 28.2209C111.25 28.5009 111.543 28.7184 111.878 28.8734C112.218 29.0284 112.573 29.1059 112.943 29.1059C113.423 29.1059 113.853 28.9909 114.233 28.7609C114.618 28.5259 114.923 28.2159 115.148 27.8309C115.373 27.4459 115.485 27.0234 115.485 26.5634C115.485 26.0884 115.368 25.6609 115.133 25.2809C114.898 24.8959 114.588 24.5909 114.203 24.3659C113.818 24.1409 113.398 24.0284 112.943 24.0284C112.433 24.0284 111.993 24.1409 111.623 24.3659C111.253 24.5859 110.958 24.8634 110.738 25.1984L109.733 24.7784L110.063 19.1609H115.83V20.2184H110.55L111.098 19.7009L110.805 24.4934L110.528 24.1259C110.838 23.7709 111.213 23.4934 111.653 23.2934C112.093 23.0934 112.555 22.9934 113.04 22.9934C113.705 22.9934 114.305 23.1534 114.84 23.4734C115.375 23.7884 115.8 24.2159 116.115 24.7559C116.43 25.2959 116.588 25.8984 116.588 26.5634C116.588 27.2234 116.42 27.8284 116.085 28.3784C115.75 28.9234 115.305 29.3609 114.75 29.6909C114.195 30.0209 113.583 30.1859 112.913 30.1859ZM121.475 30.1859C120.8 30.1859 120.202 30.0509 119.682 29.7809C119.167 29.5109 118.762 29.1334 118.467 28.6484C118.177 28.1584 118.032 27.5859 118.032 26.9309C118.032 26.2609 118.195 25.6659 118.52 25.1459C118.845 24.6209 119.34 24.2234 120.005 23.9534L119.99 24.3884C119.435 24.1834 119.012 23.8484 118.722 23.3834C118.432 22.9184 118.287 22.4034 118.287 21.8384C118.287 21.2384 118.425 20.7234 118.7 20.2934C118.975 19.8584 119.35 19.5234 119.825 19.2884C120.305 19.0534 120.855 18.9359 121.475 18.9359C122.095 18.9359 122.645 19.0534 123.125 19.2884C123.605 19.5234 123.982 19.8584 124.257 20.2934C124.532 20.7234 124.67 21.2384 124.67 21.8384C124.67 22.4034 124.53 22.9159 124.25 23.3759C123.975 23.8359 123.552 24.1734 122.982 24.3884L122.945 23.9534C123.61 24.2184 124.107 24.6134 124.437 25.1384C124.772 25.6634 124.94 26.2609 124.94 26.9309C124.94 27.5859 124.792 28.1584 124.497 28.6484C124.202 29.1334 123.795 29.5109 123.275 29.7809C122.755 30.0509 122.155 30.1859 121.475 30.1859ZM121.475 29.1284C122.155 29.1284 122.707 28.9409 123.132 28.5659C123.557 28.1859 123.77 27.6409 123.77 26.9309C123.77 26.2109 123.56 25.6659 123.14 25.2959C122.72 24.9209 122.165 24.7334 121.475 24.7334C120.785 24.7334 120.232 24.9209 119.817 25.2959C119.402 25.6659 119.195 26.2109 119.195 26.9309C119.195 27.6409 119.405 28.1859 119.825 28.5659C120.245 28.9409 120.795 29.1284 121.475 29.1284ZM121.475 23.6684C122.075 23.6684 122.562 23.5159 122.937 23.2109C123.312 22.9009 123.5 22.4434 123.5 21.8384C123.5 21.2334 123.312 20.7809 122.937 20.4809C122.562 20.1759 122.075 20.0234 121.475 20.0234C120.875 20.0234 120.387 20.1759 120.012 20.4809C119.642 20.7809 119.457 21.2334 119.457 21.8384C119.457 22.4434 119.642 22.9009 120.012 23.2109C120.387 23.5159 120.875 23.6684 121.475 23.6684ZM130.209 30.1859C129.544 30.1859 128.944 30.0309 128.409 29.7209C127.879 29.4109 127.459 28.9909 127.149 28.4609C126.839 27.9259 126.684 27.3259 126.684 26.6609V22.4609C126.684 21.7959 126.839 21.1984 127.149 20.6684C127.459 20.1334 127.879 19.7109 128.409 19.4009C128.944 19.0909 129.544 18.9359 130.209 18.9359C130.874 18.9359 131.471 19.0909 132.001 19.4009C132.536 19.7109 132.959 20.1334 133.269 20.6684C133.579 21.1984 133.734 21.7959 133.734 22.4609V26.6609C133.734 27.3259 133.579 27.9259 133.269 28.4609C132.959 28.9909 132.536 29.4109 132.001 29.7209C131.471 30.0309 130.874 30.1859 130.209 30.1859ZM130.209 29.1209C130.654 29.1209 131.059 29.0134 131.424 28.7984C131.789 28.5784 132.079 28.2859 132.294 27.9209C132.509 27.5559 132.616 27.1534 132.616 26.7134V22.4084C132.616 21.9634 132.509 21.5584 132.294 21.1934C132.079 20.8284 131.789 20.5384 131.424 20.3234C131.059 20.1034 130.654 19.9934 130.209 19.9934C129.764 19.9934 129.359 20.1034 128.994 20.3234C128.629 20.5384 128.339 20.8284 128.124 21.1934C127.909 21.5584 127.801 21.9634 127.801 22.4084V26.7134C127.801 27.1534 127.909 27.5559 128.124 27.9209C128.339 28.2859 128.629 28.5784 128.994 28.7984C129.359 29.0134 129.764 29.1209 130.209 29.1209Z" fill="white" fill-opacity="0.7"/>
</svg>
