
<svg width="113" height="25" viewBox="0 0 113 25" fill="none" xmlns="http://www.w3.org/2000/svg">
<path d="M27.2722 10.5827V0.248047H38.6004C40.217 0.248047 41.3646 0.482384 42.042 0.951063C42.7193 1.41974 43.0587 2.16601 43.0587 3.19124V3.26378C43.0587 4.33783 42.6058 5.0548 41.6986 5.41607C42.6044 5.75782 43.0587 6.46502 43.0587 7.53908V7.61161C43.0587 8.64662 42.718 9.39985 42.0353 9.87272C41.3526 10.3456 40.2076 10.5827 38.6004 10.5827H27.2722ZM30.1888 4.27367H38.587C39.0546 4.27367 39.3859 4.2109 39.5823 4.08397C39.7787 3.95703 39.8763 3.76175 39.8763 3.49812V3.45348C39.8763 3.18008 39.7787 2.9834 39.5823 2.86065C39.3859 2.7393 39.0306 2.67793 38.5162 2.67793H30.1888V4.27367ZM30.1888 8.15283H38.5162C39.0306 8.15283 39.3859 8.09006 39.5823 7.96313C39.7787 7.83619 39.8763 7.63115 39.8763 7.34798V7.30474C39.8763 7.04111 39.7801 6.84304 39.589 6.71192C39.398 6.57941 39.0626 6.51384 38.587 6.51384H30.1888V8.15283Z" fill="white"/>
<path d="M50.7969 10.5833C48.7314 10.5833 47.2057 10.1564 46.2197 9.30277C45.2337 8.44911 44.7407 7.18256 44.7407 5.50451V5.38735C44.7407 1.96152 46.7595 0.25 50.7969 0.25H55.6894C59.7269 0.25 61.7456 1.96292 61.7456 5.38735V5.50451C61.7456 7.18256 61.2526 8.44911 60.2667 9.30277C59.2807 10.1564 57.7549 10.5833 55.6894 10.5833H50.7969ZM50.7127 7.94834H55.7883C56.8718 7.94834 57.6534 7.74609 58.129 7.34018C58.606 6.93566 58.8438 6.31773 58.8438 5.48917V5.372C58.8438 4.52252 58.606 3.89622 58.129 3.4917C57.6521 3.08719 56.8718 2.88493 55.7883 2.88493H50.7127C49.6185 2.88493 48.8356 3.08719 48.364 3.4917C47.8924 3.89622 47.6559 4.52391 47.6559 5.372V5.48917C47.6559 6.32889 47.8937 6.94822 48.3707 7.34855C48.8477 7.74888 49.6279 7.94834 50.7114 7.94834H50.7127Z" fill="white"/>
<path d="M69.4852 10.5833C67.4197 10.5833 65.8939 10.1564 64.9079 9.30277C63.9219 8.44911 63.429 7.18256 63.429 5.50451V5.38735C63.429 1.96152 65.4477 0.25 69.4852 0.25H74.3777C78.4151 0.25 80.4339 1.96292 80.4339 5.38735V5.50451C80.4339 7.18256 79.9409 8.44911 78.9549 9.30277C77.9689 10.1564 76.4432 10.5833 74.3777 10.5833H69.4852ZM69.401 7.94834H74.4765C75.5601 7.94834 76.3416 7.74609 76.8173 7.34018C77.2942 6.93566 77.532 6.31773 77.532 5.48917V5.372C77.532 4.52252 77.2942 3.89622 76.8173 3.4917C76.3403 3.08719 75.5601 2.88493 74.4765 2.88493H69.401C68.3068 2.88493 67.5239 3.08719 67.0523 3.4917C66.5806 3.89622 66.3442 4.52391 66.3442 5.372V5.48917C66.3442 6.32889 66.582 6.94822 67.0589 7.34855C67.5359 7.74888 68.3161 7.94834 69.3996 7.94834H69.401Z" fill="white"/>
<path d="M82.5809 10.583V0L91.8062 6.30904L101.017 0V10.583H98.1149V5.12339L91.8062 9.48518L85.4975 5.12339V10.583H82.5809Z" fill="white"/>
<path d="M32.8662 24.9597V17.2599H26.6697V14.625H41.9658V17.2599H35.7827V24.9597H32.8662Z" fill="white"/>
<path d="M49.1431 24.9592C47.0776 24.9592 45.5519 24.5324 44.5659 23.6787C43.5799 22.8251 43.0869 21.5585 43.0869 19.8805V19.7633C43.0869 16.3375 45.1056 14.626 49.1431 14.626H54.0356C58.0731 14.626 60.0918 16.3389 60.0918 19.7633V19.8805C60.0918 21.5585 59.5988 22.8251 58.6129 23.6787C57.6269 24.5324 56.1011 24.9592 54.0356 24.9592H49.1431ZM49.0589 22.3243H54.1345C55.218 22.3243 55.9996 22.1221 56.4752 21.7161C56.9522 21.3116 57.19 20.6937 57.19 19.8651V19.748C57.19 18.8985 56.9522 18.2722 56.4752 17.8677C55.9983 17.4632 55.218 17.2609 54.1345 17.2609H49.0589C47.9647 17.2609 47.1818 17.4632 46.7102 17.8677C46.2386 18.2722 46.0021 18.8999 46.0021 19.748V19.8651C46.0021 20.7049 46.2399 21.3242 46.7169 21.7245C47.1939 22.1248 47.9741 22.3243 49.0576 22.3243H49.0589Z" fill="white"/>
<path d="M67.8313 24.9592C65.7658 24.9592 64.2401 24.5324 63.2541 23.6787C62.2681 22.8251 61.7751 21.5585 61.7751 19.8805V19.7633C61.7751 16.3375 63.7939 14.626 67.8313 14.626H72.7239C76.7613 14.626 78.7801 16.3389 78.7801 19.7633V19.8805C78.7801 21.5585 78.2871 22.8251 77.3011 23.6787C76.3151 24.5324 74.7894 24.9592 72.7239 24.9592H67.8313ZM67.7472 22.3243H72.8227C73.9062 22.3243 74.6878 22.1221 75.1634 21.7161C75.6404 21.3116 75.8782 20.6937 75.8782 19.8651V19.748C75.8782 18.8985 75.6404 18.2722 75.1634 17.8677C74.6865 17.4632 73.9062 17.2609 72.8227 17.2609H67.7472C66.653 17.2609 65.8701 17.4632 65.3984 17.8677C64.9268 18.2722 64.6903 18.8999 64.6903 19.748V19.8651C64.6903 20.7049 64.9282 21.3242 65.4051 21.7245C65.8821 22.1248 66.6623 22.3243 67.7458 22.3243H67.7472Z" fill="white"/>
<path d="M80.9257 24.9597V14.625H83.8422V22.3247H95.4082V24.9597H80.9257Z" fill="white"/>
<path d="M97.2171 24.9597V22.5298H107.943C108.392 22.5298 108.723 22.467 108.938 22.3401C109.153 22.2131 109.26 21.9983 109.26 21.6956C109.26 21.393 109.155 21.1963 108.945 21.0735C108.735 20.9522 108.4 20.8908 107.943 20.8908H100.583C99.3855 20.8908 98.5051 20.6132 97.9399 20.0567C97.3748 19.5001 97.0916 18.7441 97.0916 17.7872C97.0916 16.8303 97.3748 16.0408 97.9399 15.4745C98.5051 14.9082 99.3855 14.625 100.583 14.625H111.813V17.0549H101.299C100.878 17.0549 100.575 17.1163 100.388 17.2376C100.2 17.3604 100.107 17.5668 100.107 17.8597C100.107 18.1527 100.198 18.3702 100.381 18.4818C100.563 18.5948 100.868 18.6506 101.299 18.6506H108.743C109.957 18.6506 110.849 18.9282 111.414 19.4848C111.979 20.0413 112.262 20.7973 112.262 21.7542C112.262 22.7111 111.979 23.5201 111.414 24.0962C110.849 24.6723 109.957 24.9597 108.743 24.9597H97.2185H97.2171Z" fill="white"/>
<path d="M0 15.6774L4.9139 10.4912H9.73428V15.6774H0Z" fill="#E4D23A"/>
<path d="M22.4533 10.583V15.7692L17.4793 20.9623V15.7134H9.73438L14.6483 10.583H22.4533Z" fill="#E4D23A"/>
<path d="M22.4544 13.8525V19.7682L17.479 24.96H7.89974L2.98584 19.8296H17.479V14.5807L22.4544 13.8525Z" fill="#E4D23A"/>
<path d="M19.6182 0.204102V5.39026L14.6429 10.5834V5.33447H0.149658L5.06356 0.204102H19.6182Z" fill="#E4D23A"/>
</svg>
